<?xml version="1.0" encoding="UTF-8"?>
<svg id="Capa_2" xmlns="http://www.w3.org/2000/svg" viewBox="0 0 1572.58 76.39">
  <g id="Capa_1-2" data-name="Capa_1">
    <g id="ManuelDenisDeveloper-logo">
      <polygon points="0 38.49 37.5 52.33 37.5 42.44 9.81 33.91 9.81 33.25 37.5 24.72 37.5 14.83 0 28.67 0 38.49"/>
      <polygon points="72.51 7.54 67.71 7.54 63.9 30.8 63.61 30.8 63.46 30.8 63.32 30.8 59.51 7.54 54.71 7.54 54.13 7.54 45.7 7.54 45.7 59.55 54.71 59.55 54.71 16.77 55.85 16.77 60.24 41.34 62.37 41.34 64.64 41.34 66.98 41.34 71.37 16.77 72.51 16.77 72.51 59.55 81.52 59.55 81.52 7.54 73.1 7.54 72.51 7.54"/>
      <path d="M123.23,36.33c0-5.13-1.71-9.03-5.13-11.7-3.42-2.67-8.64-4.06-15.67-4.16l-8.46-.11-.73,9.01,9.92.26c3.49.1,6.12.63,7.89,1.59s2.66,2.48,2.66,4.56v.12c-.82-.18-1.63-.33-2.44-.45-1.55-.22-3.39-.33-5.51-.33-5.52,0-9.78,1.16-12.78,3.48-3,2.32-4.5,5.65-4.5,10,0,3.73,1.15,6.62,3.44,8.64,2.29,2.03,5.51,3.04,9.63,3.04,2.39,0,4.45-.37,6.17-1.12,1.72-.74,3.06-1.87,4.01-3.37.78-1.23,1.25-2.72,1.44-4.45h.9l.63,8.57,13.92-.37v-8.06l-5.38-.81v-14.36ZM109.39,50.72c-1.44.81-3.24,1.21-5.38,1.21-1.78,0-3.14-.35-4.06-1.04-.93-.7-1.39-1.7-1.39-3.02,0-2.93,2.56-4.39,7.69-4.39,1.37,0,2.67.03,3.92.09,1.06.05,2.24.22,3.53.5-.04,1.23-.39,2.42-1.06,3.59-.72,1.25-1.8,2.27-3.24,3.08Z"/>
      <path d="M155.05,20c-2.88,0-5.03.64-6.45,1.92-1.42,1.28-2.31,3.23-2.67,5.84h-1.1l-.91-7.03h-8.86v38.82h9.92v-19.37c0-7.18,2.49-10.77,7.47-10.77,1.78,0,3.16.63,4.12,1.9.96,1.27,1.45,3.08,1.45,5.42v22.81h9.92v-25.27c0-4.54-1.12-8.06-3.37-10.55-2.25-2.49-5.42-3.74-9.52-3.74Z"/>
      <path d="M210.79,46.36v-25.63h-9.92v18.42c0,4.22-.59,7.23-1.78,9.03-1.18,1.79-2.94,2.69-5.25,2.69-1.78,0-3.18-.6-4.19-1.81-1.01-1.21-1.52-2.92-1.52-5.14v-23.18h-9.92v25.63c0,4.42,1.01,7.84,3.04,10.27,2.03,2.43,4.88,3.64,8.57,3.64,2.56,0,4.72-.71,6.48-2.12s2.94-3.44,3.55-6.08h1.13l.56,7.84,14.61-.37v-8.06l-5.35-.81v-4.32Z"/>
      <path d="M239.25,20c-5.66,0-10.05,1.76-13.17,5.27-3.11,3.52-4.67,8.45-4.67,14.79s1.83,11.52,5.49,15c3.66,3.48,8.85,5.22,15.56,5.22,1.59,0,3.41-.06,5.46-.18,2.05-.12,4.32-.4,6.81-.84l-.95-9.38c-1.78.32-3.53.57-5.24.75-1.71.18-3.44.27-5.2.27-3.91,0-6.92-.95-9.03-2.86-1.17-1.06-2.01-2.39-2.53-3.99h24.63c.15-1.59.22-3.26.22-5.02,0-6.2-1.51-10.93-4.54-14.17-3.03-3.25-7.31-4.87-12.85-4.87ZM231.31,37.17c.28-2.19.94-3.97,1.99-5.33,1.43-1.84,3.44-2.76,6.02-2.76,2.39,0,4.25.7,5.58,2.09,1.33,1.39,2,3.39,2,6.01h-15.59Z"/>
      <path d="M292.05,49.95c-1.93,0-3.38-.24-4.36-.73-.98-.49-1.64-1.25-1.98-2.27-.34-1.03-.51-2.34-.51-3.96V4.61h-20.87v9.12h10.99v29.63c0,5.91,1.08,10.21,3.24,12.89,2.16,2.69,5.68,4.03,10.57,4.03,2.2,0,4.26-.12,6.19-.37,1.93-.24,3.93-.63,6.01-1.17l-1.14-10.18c-3.27.93-5.98,1.39-8.13,1.39Z"/>
      <path d="M323.03,7.54h-13.22v52h13.22c16.29,0,24.43-8.42,24.43-25.27,0-17.82-8.14-26.73-24.43-26.73ZM333.75,46.23c-2.38,2.72-5.95,4.08-10.71,4.08h-3.55V16.77h3.55c4.76,0,8.33,1.48,10.71,4.43,2.38,2.95,3.57,7.31,3.57,13.07,0,5.25-1.19,9.24-3.57,11.96Z"/>
      <path d="M371.08,20c-5.66,0-10.05,1.76-13.17,5.27-3.11,3.52-4.67,8.45-4.67,14.79s1.83,11.52,5.49,15c3.66,3.48,8.85,5.22,15.56,5.22,1.59,0,3.41-.06,5.46-.18,2.05-.12,4.32-.4,6.81-.84l-.95-9.38c-1.78.32-3.53.57-5.24.75-1.71.18-3.44.27-5.2.27-3.91,0-6.92-.95-9.03-2.86-1.17-1.06-2.01-2.39-2.53-3.99h24.63c.15-1.59.22-3.26.22-5.02,0-6.2-1.51-10.93-4.54-14.17-3.03-3.25-7.31-4.87-12.85-4.87ZM363.14,37.17c.28-2.19.94-3.97,1.99-5.33,1.43-1.84,3.44-2.76,6.02-2.76,2.39,0,4.25.7,5.58,2.09,1.33,1.39,2,3.39,2,6.01h-15.59Z"/>
      <path d="M418.73,20c-2.88,0-5.03.64-6.45,1.92-1.42,1.28-2.31,3.23-2.67,5.84h-1.1l-.91-7.03h-8.86v38.82h9.92v-19.37c0-7.18,2.49-10.77,7.47-10.77,1.78,0,3.16.63,4.12,1.9.96,1.27,1.45,3.08,1.45,5.42v22.81h9.92v-25.27c0-4.54-1.12-8.06-3.37-10.55-2.25-2.49-5.42-3.74-9.52-3.74Z"/>
      <polygon points="466.63 29.88 466.63 22.92 466.63 20.73 444.58 20.73 444.58 29.88 456.74 29.88 456.74 50.39 442.38 50.39 442.38 59.55 456.74 59.55 457.47 59.55 465.89 59.55 466.63 59.55 478.12 59.55 478.12 50.39 466.63 50.39 466.63 29.88"/>
      <path d="M461.24,15.49c1.88,0,3.41-.59,4.58-1.76s1.76-2.7,1.76-4.58-.59-3.41-1.76-4.58-2.7-1.76-4.58-1.76-3.41.59-4.58,1.76-1.76,2.7-1.76,4.58.59,3.41,1.76,4.58,2.7,1.76,4.58,1.76Z"/>
      <path d="M509.99,37.39l-10.88-3c-.76-.22-1.31-.5-1.67-.82-.35-.33-.53-.8-.53-1.41,0-.98.86-1.68,2.58-2.11,1.72-.43,4.5-.64,8.33-.64,1.15,0,2.55.04,4.21.11,1.66.07,3.6.21,5.82.4l1.06-9.19c-2-.24-3.9-.43-5.7-.55-1.79-.12-3.52-.18-5.18-.18-7.15,0-12.49,1.02-16,3.06-3.52,2.04-5.27,5.15-5.27,9.32,0,2.61.65,4.69,1.96,6.24,1.31,1.55,3.25,2.7,5.84,3.46l12.63,3.66c.8.24,1.39.54,1.76.88.37.34.55.81.55,1.39,0,1-.75,1.73-2.23,2.18s-3.89.68-7.21.68c-1.2,0-2.84-.1-4.94-.29-2.1-.2-4.69-.49-7.76-.88l-1.17,9.49c1.73.37,3.74.64,6.02.82,2.28.18,4.9.27,7.86.27,6.71,0,11.71-1.01,14.98-3.02,3.27-2.01,4.91-5.08,4.91-9.21,0-2.76-.82-5-2.47-6.72-1.65-1.72-4.14-3.03-7.49-3.94Z"/>
      <path d="M597.47,27.76h-.95c-.44-2.61-1.4-4.56-2.88-5.84-1.48-1.28-3.63-1.92-6.46-1.92-4.86,0-8.62,1.76-11.3,5.27-2.67,3.52-4.01,8.48-4.01,14.9s1.34,11.44,4.01,14.91c2.67,3.47,6.41,5.2,11.22,5.2,2.71,0,4.88-.65,6.52-1.94,1.63-1.29,2.65-3.23,3.04-5.82h.86l1.37,7.4,8.5-.37V4.61h-9.92v23.14ZM595.81,48.38c-1.11,1.71-3.08,2.56-5.92,2.56-2.59,0-4.55-.9-5.88-2.71-1.33-1.81-2-4.49-2-8.06s.68-6.11,2.05-8,3.31-2.84,5.82-2.84,4.44.87,5.7,2.6c1.26,1.73,1.89,4.48,1.89,8.24s-.56,6.5-1.67,8.2Z"/>
      <path d="M634.75,20c-5.66,0-10.05,1.76-13.17,5.27-3.11,3.52-4.67,8.45-4.67,14.79s1.83,11.52,5.49,15c3.66,3.48,8.85,5.22,15.56,5.22,1.59,0,3.41-.06,5.46-.18,2.05-.12,4.32-.4,6.81-.84l-.95-9.38c-1.78.32-3.53.57-5.24.75-1.71.18-3.44.27-5.2.27-3.91,0-6.92-.95-9.03-2.86-1.17-1.06-2.01-2.39-2.53-3.99h24.63c.15-1.59.22-3.26.22-5.02,0-6.2-1.51-10.93-4.54-14.17-3.03-3.25-7.31-4.87-12.85-4.87ZM626.81,37.17c.28-2.19.94-3.97,1.99-5.33,1.43-1.84,3.44-2.76,6.02-2.76,2.39,0,4.25.7,5.58,2.09,1.33,1.39,2,3.39,2,6.01h-15.59Z"/>
      <polygon points="679.17 50.83 678.51 50.83 669.29 20.73 659.18 20.73 672.47 59.55 685.22 59.55 698.51 20.73 688.4 20.73 679.17 50.83"/>
      <path d="M722.64,20c-5.66,0-10.05,1.76-13.17,5.27-3.11,3.52-4.67,8.45-4.67,14.79s1.83,11.52,5.49,15c3.66,3.48,8.85,5.22,15.56,5.22,1.59,0,3.41-.06,5.46-.18,2.05-.12,4.32-.4,6.81-.84l-.95-9.38c-1.78.32-3.53.57-5.24.75-1.71.18-3.44.27-5.2.27-3.91,0-6.92-.95-9.03-2.86-1.17-1.06-2.01-2.39-2.53-3.99h24.63c.15-1.59.22-3.26.22-5.02,0-6.2-1.51-10.93-4.54-14.17-3.03-3.25-7.31-4.87-12.85-4.87ZM714.7,37.17c.28-2.19.94-3.97,1.99-5.33,1.43-1.84,3.44-2.76,6.02-2.76,2.39,0,4.25.7,5.58,2.09,1.33,1.39,2,3.39,2,6.01h-15.59Z"/>
      <path d="M775.45,49.95c-1.93,0-3.38-.24-4.36-.73-.98-.49-1.64-1.25-1.98-2.27-.34-1.03-.51-2.34-.51-3.96V4.61h-20.87v9.12h10.99v29.63c0,5.91,1.08,10.21,3.24,12.89,2.16,2.69,5.68,4.03,10.57,4.03,2.2,0,4.26-.12,6.19-.37,1.93-.24,3.93-.63,6.01-1.17l-1.13-10.18c-3.27.93-5.98,1.39-8.13,1.39Z"/>
      <path d="M810.68,20c-5.59,0-9.92,1.75-13,5.25-3.08,3.5-4.62,8.47-4.62,14.89s1.54,11.35,4.62,14.87,7.41,5.27,13,5.27,9.92-1.76,13-5.27,4.62-8.47,4.62-14.87-1.54-11.38-4.62-14.89c-3.08-3.5-7.41-5.25-13-5.25ZM816.21,48.07c-1.29,1.87-3.14,2.8-5.53,2.8s-4.21-.93-5.51-2.8c-1.31-1.87-1.96-4.51-1.96-7.93s.65-6.09,1.96-7.95,3.14-2.78,5.51-2.78,4.24.93,5.53,2.78,1.94,4.5,1.94,7.95-.65,6.06-1.94,7.93Z"/>
      <path d="M858.4,20c-2.95,0-5.19.64-6.72,1.92-1.53,1.28-2.52,3.23-2.98,5.84h-.69l-.63-7.03h-9.19v55.66h9.92v-23.88h.81c.39,2.59,1.4,4.53,3.04,5.82,1.64,1.29,3.81,1.94,6.52,1.94,4.81,0,8.55-1.73,11.22-5.2,2.67-3.47,4.01-8.43,4.01-14.91s-1.34-11.39-4.01-14.9c-2.67-3.52-6.44-5.27-11.3-5.27ZM861.57,48.23c-1.33,1.81-3.29,2.71-5.88,2.71-2.81,0-4.77-.86-5.9-2.56-1.12-1.71-1.68-4.44-1.68-8.2s.63-6.51,1.9-8.24,3.16-2.6,5.68-2.6,4.46.95,5.82,2.84,2.05,4.56,2.05,8-.67,6.25-2,8.06Z"/>
      <path d="M898.42,20c-5.66,0-10.05,1.76-13.17,5.27-3.11,3.52-4.67,8.45-4.67,14.79s1.83,11.52,5.49,15c3.66,3.48,8.85,5.22,15.56,5.22,1.59,0,3.41-.06,5.46-.18,2.05-.12,4.32-.4,6.81-.84l-.95-9.38c-1.78.32-3.53.57-5.24.75-1.71.18-3.44.27-5.2.27-3.91,0-6.92-.95-9.03-2.86-1.17-1.06-2.01-2.39-2.53-3.99h24.63c.15-1.59.22-3.26.22-5.02,0-6.2-1.51-10.93-4.54-14.17-3.03-3.25-7.31-4.87-12.85-4.87ZM890.48,37.17c.28-2.19.94-3.97,1.99-5.33,1.43-1.84,3.44-2.76,6.02-2.76,2.39,0,4.25.7,5.58,2.09,1.33,1.39,2,3.39,2,6.01h-15.59Z"/>
      <path d="M951.93,20c-6.23,0-9.53,3.16-9.92,9.48h-1.37l-1.15-8.75h-15.16v8.5h6.74v21.83h-8.2v8.5h27.17v-8.5h-9.08v-8.2c0-4.32.6-7.65,1.79-10s3-3.52,5.42-3.52c1.86,0,3.2.5,4.05,1.5.84,1,1.26,2.65,1.26,4.94h9.89c0-5.1-.98-9.01-2.95-11.72-1.97-2.71-4.79-4.06-8.48-4.06Z"/>
      <rect x="967.53" y="38.2" width="37.87" height="9.15"/>
      <rect x="967.53" y="19.81" width="37.87" height="9.16"/>
      <path d="M1040.51,9.19c.54,0,1.13.03,1.78.09.65.06,1.31.15,2,.27l.88-8.83c-.88-.22-1.84-.4-2.89-.53-1.05-.13-2.37-.2-3.96-.2-2.64,0-4.99.5-7.07,1.5-2.08,1-3.62,2.46-4.65,4.38s-1.29,4.25-.81,7.01c.22,1.15.57,2.29,1.04,3.42.48,1.14.92,2.29,1.34,3.46s.62,2.41.62,3.7c0,.93-.27,1.75-.82,2.45-.55.71-1.34,1.29-2.38,1.76-1.04.46-2.29.81-3.77,1.04s-3.14.35-5,.35v9.23c1.85,0,3.52.1,5,.29s2.73.49,3.77.9c1.04.4,1.83.92,2.38,1.54.55.62.82,1.36.82,2.21,0,1.22-.21,2.42-.62,3.61-.42,1.18-.87,2.35-1.35,3.5-.49,1.15-.83,2.31-1.03,3.48-.49,2.86-.22,5.29.81,7.31,1.03,2.01,2.58,3.56,4.65,4.63,2.08,1.07,4.43,1.61,7.07,1.61,1.59,0,2.91-.07,3.96-.2,1.05-.13,2.01-.31,2.89-.53l-.88-8.83c-.68.1-1.35.18-2,.26-.65.07-1.24.11-1.78.11-1.49,0-2.74-.59-3.75-1.78s-1.29-2.91-.82-5.18c.22-1.03.55-2.04.99-3.06.44-1.01.85-2.06,1.23-3.15.38-1.09.57-2.2.57-3.35,0-2.2-.97-3.94-2.91-5.22-1.94-1.28-4.66-1.95-8.15-2v-1.54c3.49-.05,6.21-.76,8.15-2.12,1.94-1.37,2.91-3.28,2.91-5.75,0-1.12-.18-2.22-.53-3.28-.35-1.06-.75-2.12-1.19-3.17s-.79-2.09-1.06-3.11c-.51-2.05-.25-3.61.79-4.69,1.04-1.07,2.3-1.61,3.79-1.61Z"/>
      <path d="M1085.3,20c-1.86,0-3.35.49-4.49,1.48-1.14.99-1.81,2.35-2.03,4.08h-.89c-.25-1.44-.72-2.6-1.4-3.48-1.09-1.39-2.57-2.09-4.45-2.09-3.39,0-5.36,1.86-5.9,5.57h-.87l-.52-4.83h-8.9v38.82h9.78v-25.96c0-2.9.93-4.36,2.78-4.36,1.56,0,2.34,1.1,2.34,3.3v27.03h7.36v-25.96c0-2.9.88-4.36,2.64-4.36,1.56,0,2.34,1.34,2.34,4.03v26.29h9.74v-30.4c0-3.22-.6-5.55-1.81-7-1.21-1.44-3.12-2.16-5.73-2.16Z"/>
      <path d="M1133.97,36.33c0-5.13-1.71-9.03-5.13-11.7-3.42-2.67-8.64-4.06-15.67-4.16l-8.46-.11-.73,9.01,9.92.26c3.49.1,6.12.63,7.89,1.59s2.66,2.48,2.66,4.56v.12c-.82-.18-1.63-.33-2.44-.45-1.55-.22-3.39-.33-5.51-.33-5.52,0-9.78,1.16-12.78,3.48-3,2.32-4.5,5.65-4.5,10,0,3.73,1.15,6.62,3.44,8.64,2.29,2.03,5.5,3.04,9.63,3.04,2.39,0,4.45-.37,6.17-1.12,1.72-.74,3.06-1.87,4.01-3.37.78-1.23,1.25-2.72,1.44-4.45h.9l.63,8.57,13.92-.37v-8.06l-5.38-.81v-14.36ZM1120.13,50.72c-1.44.81-3.24,1.21-5.38,1.21-1.78,0-3.14-.35-4.06-1.04-.93-.7-1.39-1.7-1.39-3.02,0-2.93,2.56-4.39,7.69-4.39,1.37,0,2.67.03,3.92.09,1.06.05,2.24.22,3.54.5-.04,1.23-.39,2.42-1.06,3.59-.72,1.25-1.8,2.27-3.24,3.08Z"/>
      <path d="M1165.8,20c-2.88,0-5.03.64-6.45,1.92-1.42,1.28-2.31,3.23-2.67,5.84h-1.1l-.91-7.03h-8.86v38.82h9.92v-19.37c0-7.18,2.49-10.77,7.47-10.77,1.78,0,3.16.63,4.12,1.9.96,1.27,1.45,3.08,1.45,5.42v22.81h9.92v-25.27c0-4.54-1.12-8.06-3.37-10.55-2.25-2.49-5.42-3.74-9.52-3.74Z"/>
      <path d="M1212.71,27.76h-.95c-.44-2.61-1.4-4.56-2.88-5.84-1.48-1.28-3.63-1.92-6.46-1.92-4.86,0-8.62,1.76-11.3,5.27-2.67,3.52-4.01,8.48-4.01,14.9s1.34,11.44,4.01,14.91c2.67,3.47,6.41,5.2,11.22,5.2,2.71,0,4.88-.65,6.52-1.94,1.63-1.29,2.65-3.23,3.04-5.82h.86l1.37,7.4,8.5-.37V4.61h-9.92v23.14ZM1211.04,48.38c-1.11,1.71-3.08,2.56-5.92,2.56-2.59,0-4.55-.9-5.88-2.71-1.33-1.81-2-4.49-2-8.06s.68-6.11,2.05-8,3.31-2.84,5.82-2.84,4.44.87,5.7,2.6c1.26,1.73,1.89,4.48,1.89,8.24s-.56,6.5-1.67,8.2Z"/>
      <path d="M1249.99,20c-5.66,0-10.05,1.76-13.17,5.27-3.11,3.52-4.67,8.45-4.67,14.79s1.83,11.52,5.49,15c3.66,3.48,8.85,5.22,15.56,5.22,1.59,0,3.41-.06,5.46-.18,2.05-.12,4.32-.4,6.81-.84l-.95-9.38c-1.78.32-3.53.57-5.24.75-1.71.18-3.44.27-5.2.27-3.91,0-6.92-.95-9.03-2.86-1.17-1.06-2.01-2.39-2.53-3.99h24.63c.15-1.59.22-3.26.22-5.02,0-6.2-1.51-10.93-4.54-14.17-3.03-3.25-7.31-4.87-12.85-4.87ZM1242.05,37.17c.28-2.19.94-3.97,1.99-5.33,1.43-1.84,3.44-2.76,6.02-2.76,2.39,0,4.25.7,5.58,2.09,1.33,1.39,2,3.39,2,6.01h-15.59Z"/>
      <path d="M1297.63,20c-2.88,0-5.03.64-6.45,1.92-1.42,1.28-2.31,3.23-2.67,5.84h-1.1l-.91-7.03h-8.86v38.82h9.92v-19.37c0-7.18,2.49-10.77,7.47-10.77,1.78,0,3.16.63,4.12,1.9.96,1.27,1.45,3.08,1.45,5.42v22.81h9.92v-25.27c0-4.54-1.12-8.06-3.37-10.55-2.25-2.49-5.42-3.74-9.52-3.74Z"/>
      <path d="M1344.54,27.76h-.95c-.44-2.61-1.4-4.56-2.88-5.84-1.48-1.28-3.63-1.92-6.46-1.92-4.86,0-8.62,1.76-11.3,5.27-2.67,3.52-4.01,8.48-4.01,14.9s1.34,11.44,4.01,14.91c2.67,3.47,6.41,5.2,11.22,5.2,2.71,0,4.88-.65,6.52-1.94,1.63-1.29,2.65-3.23,3.04-5.82h.86l1.37,7.4,8.5-.37V4.61h-9.92v23.14ZM1342.88,48.38c-1.11,1.71-3.08,2.56-5.92,2.56-2.59,0-4.55-.9-5.88-2.71-1.33-1.81-2-4.49-2-8.06s.68-6.11,2.05-8,3.31-2.84,5.82-2.84,4.44.87,5.7,2.6c1.26,1.73,1.89,4.48,1.89,8.24s-.56,6.5-1.67,8.2Z"/>
      <path d="M1381.82,20c-5.66,0-10.05,1.76-13.17,5.27-3.11,3.52-4.67,8.45-4.67,14.79s1.83,11.52,5.49,15c3.66,3.48,8.85,5.22,15.56,5.22,1.59,0,3.41-.06,5.46-.18,2.05-.12,4.32-.4,6.81-.84l-.95-9.38c-1.78.32-3.53.57-5.24.75-1.71.18-3.44.27-5.2.27-3.91,0-6.92-.95-9.03-2.86-1.17-1.06-2.01-2.39-2.53-3.99h24.63c.15-1.59.22-3.26.22-5.02,0-6.2-1.51-10.93-4.54-14.17-3.03-3.25-7.31-4.87-12.85-4.87ZM1373.88,37.17c.28-2.19.94-3.97,1.99-5.33,1.43-1.84,3.44-2.76,6.02-2.76,2.39,0,4.25.7,5.58,2.09,1.33,1.39,2,3.39,2,6.01h-15.59Z"/>
      <polygon points="1426.25 50.83 1425.58 50.83 1416.36 20.73 1406.25 20.73 1419.54 59.55 1432.29 59.55 1445.58 20.73 1435.47 20.73 1426.25 50.83"/>
      <path d="M1474.68,27.69c-1.04-.46-1.83-1.05-2.38-1.76-.55-.71-.82-1.53-.82-2.45,0-1.29.21-2.53.62-3.7.41-1.17.87-2.33,1.35-3.46.49-1.13.83-2.28,1.03-3.42.49-2.76.22-5.1-.81-7.01s-2.57-3.38-4.63-4.38c-2.06-1-4.42-1.5-7.09-1.5-1.56,0-2.88.07-3.94.2-1.06.13-2.03.31-2.91.53l.88,8.83c.71-.12,1.38-.21,2.01-.27.63-.06,1.22-.09,1.76-.09,1.49,0,2.75.54,3.79,1.61s1.3,2.64.79,4.69c-.25,1.03-.59,2.06-1.04,3.11-.45,1.05-.86,2.11-1.21,3.17-.35,1.06-.53,2.16-.53,3.28,0,2.47.98,4.38,2.93,5.75,1.95,1.37,4.66,2.08,8.13,2.12v1.54c-3.47.05-6.18.71-8.13,2-1.95,1.28-2.93,3.02-2.93,5.22,0,1.15.19,2.26.57,3.35.38,1.09.79,2.14,1.25,3.15.45,1.01.77,2.03.97,3.06.46,2.27.19,4-.82,5.18-1.01,1.18-2.26,1.78-3.75,1.78-.54,0-1.12-.04-1.76-.11s-1.31-.16-2.01-.26l-.88,8.83c.88.22,1.85.4,2.91.53,1.06.13,2.37.2,3.94.2,2.66,0,5.02-.54,7.09-1.61,2.06-1.08,3.61-2.62,4.63-4.63,1.03-2.01,1.29-4.45.81-7.31-.2-1.17-.54-2.33-1.03-3.48-.49-1.15-.94-2.31-1.35-3.5-.42-1.18-.62-2.39-.62-3.61,0-.85.27-1.59.82-2.21.55-.62,1.34-1.14,2.38-1.54,1.04-.4,2.29-.7,3.77-.9,1.48-.2,3.14-.29,5-.29v-9.23c-1.86,0-3.52-.12-5-.35-1.48-.23-2.73-.58-3.77-1.04Z"/>
      <polygon points="1532.51 12.42 1537.61 .59 1527.54 .59 1499.16 66.5 1509.23 66.5 1528.92 20.77 1561.01 32.96 1561.01 34.2 1537.54 42.44 1537.54 52.33 1572.58 38.49 1572.58 28.67 1532.51 12.42"/>
    </g>
  </g>
</svg>