<?xml version="1.0" encoding="UTF-8"?>
<svg id="Capa_2" xmlns="http://www.w3.org/2000/svg" viewBox="0 0 126.45 51.78">
  <g id="Capa_1-2" data-name="Capa_1">
    <polygon id="icono-funcion" points="103.97 0 97.56 6.04 103.43 12.12 86.68 12.12 84.12 12.12 41.64 12.12 39.08 12.12 0 12.12 0 21.28 39.08 21.28 41.64 21.28 84.12 21.28 86.68 21.28 112.28 21.28 116.42 25.56 116.42 26.22 112.28 30.51 86.68 30.51 84.12 30.51 41.64 30.51 39.08 30.51 0 30.51 0 39.66 39.08 39.66 41.64 39.66 84.12 39.66 86.68 39.66 103.43 39.66 97.56 45.74 103.97 51.78 126.45 28.12 126.45 23.66 103.97 0"/>
  </g>
</svg>